<mxfile host="app.diagrams.net" agent="Mozilla/5.0 (Windows NT 10.0; Win64; x64) AppleWebKit/537.36 (KHTML, like Gecko) Chrome/138.0.0.0 Safari/537.36" version="28.0.6">
  <diagram name="Página-1" id="HnzbiWAtDux4PKgL1lz8">
    <mxGraphModel grid="1" page="1" gridSize="10" guides="1" tooltips="1" connect="1" arrows="1" fold="1" pageScale="1" pageWidth="827" pageHeight="1169" math="0" shadow="0">
      <root>
        <mxCell id="0" />
        <mxCell id="1" parent="0" />
        <mxCell id="nPoz_qIVyLvzvqhGFhRe-1" value="" style="html=1;verticalAlign=bottom;startArrow=oval;startFill=1;endArrow=block;startSize=8;curved=0;rounded=0;" edge="1" parent="1">
          <mxGeometry width="60" relative="1" as="geometry">
            <mxPoint x="490" y="130" as="sourcePoint" />
            <mxPoint x="490" y="210" as="targetPoint" />
          </mxGeometry>
        </mxCell>
        <mxCell id="nPoz_qIVyLvzvqhGFhRe-2" style="edgeStyle=orthogonalEdgeStyle;rounded=0;orthogonalLoop=1;jettySize=auto;html=1;" edge="1" parent="1" source="nPoz_qIVyLvzvqhGFhRe-3" target="nPoz_qIVyLvzvqhGFhRe-6">
          <mxGeometry relative="1" as="geometry" />
        </mxCell>
        <mxCell id="nPoz_qIVyLvzvqhGFhRe-3" value="Ref" style="shape=umlFrame;whiteSpace=wrap;html=1;pointerEvents=0;" vertex="1" parent="1">
          <mxGeometry x="380" y="210" width="250" height="90" as="geometry" />
        </mxCell>
        <mxCell id="nPoz_qIVyLvzvqhGFhRe-4" value="Solicitacion de codigo" style="text;html=1;align=center;verticalAlign=middle;resizable=0;points=[];autosize=1;strokeColor=none;fillColor=none;" vertex="1" parent="1">
          <mxGeometry x="420" y="248" width="140" height="30" as="geometry" />
        </mxCell>
        <mxCell id="nPoz_qIVyLvzvqhGFhRe-5" style="edgeStyle=orthogonalEdgeStyle;rounded=0;orthogonalLoop=1;jettySize=auto;html=1;" edge="1" parent="1" source="nPoz_qIVyLvzvqhGFhRe-6" target="nPoz_qIVyLvzvqhGFhRe-9">
          <mxGeometry relative="1" as="geometry" />
        </mxCell>
        <mxCell id="nPoz_qIVyLvzvqhGFhRe-6" value="Ref" style="shape=umlFrame;whiteSpace=wrap;html=1;pointerEvents=0;" vertex="1" parent="1">
          <mxGeometry x="380" y="390" width="250" height="90" as="geometry" />
        </mxCell>
        <mxCell id="nPoz_qIVyLvzvqhGFhRe-7" value="Verificacion de codigo" style="text;html=1;align=center;verticalAlign=middle;resizable=0;points=[];autosize=1;strokeColor=none;fillColor=none;" vertex="1" parent="1">
          <mxGeometry x="420" y="428" width="140" height="30" as="geometry" />
        </mxCell>
        <mxCell id="nPoz_qIVyLvzvqhGFhRe-8" style="edgeStyle=orthogonalEdgeStyle;rounded=0;orthogonalLoop=1;jettySize=auto;html=1;" edge="1" parent="1" source="nPoz_qIVyLvzvqhGFhRe-9" target="nPoz_qIVyLvzvqhGFhRe-14">
          <mxGeometry relative="1" as="geometry" />
        </mxCell>
        <mxCell id="nPoz_qIVyLvzvqhGFhRe-9" value="" style="rhombus;whiteSpace=wrap;html=1;" vertex="1" parent="1">
          <mxGeometry x="473.5" y="560" width="63" height="50" as="geometry" />
        </mxCell>
        <mxCell id="nPoz_qIVyLvzvqhGFhRe-10" style="edgeStyle=orthogonalEdgeStyle;rounded=0;orthogonalLoop=1;jettySize=auto;html=1;" edge="1" parent="1" source="nPoz_qIVyLvzvqhGFhRe-11" target="nPoz_qIVyLvzvqhGFhRe-19">
          <mxGeometry relative="1" as="geometry" />
        </mxCell>
        <mxCell id="nPoz_qIVyLvzvqhGFhRe-11" value="Sd Cita" style="shape=umlFrame;whiteSpace=wrap;html=1;pointerEvents=0;" vertex="1" parent="1">
          <mxGeometry x="20" y="650" width="410" height="240" as="geometry" />
        </mxCell>
        <mxCell id="nPoz_qIVyLvzvqhGFhRe-12" value="Cambiar contraseña" style="text;html=1;align=center;verticalAlign=middle;resizable=0;points=[];autosize=1;strokeColor=none;fillColor=none;" vertex="1" parent="1">
          <mxGeometry x="150" y="740" width="130" height="30" as="geometry" />
        </mxCell>
        <mxCell id="nPoz_qIVyLvzvqhGFhRe-13" style="edgeStyle=orthogonalEdgeStyle;rounded=0;orthogonalLoop=1;jettySize=auto;html=1;entryX=0.5;entryY=0;entryDx=0;entryDy=0;" edge="1" parent="1" source="nPoz_qIVyLvzvqhGFhRe-14" target="nPoz_qIVyLvzvqhGFhRe-19">
          <mxGeometry relative="1" as="geometry" />
        </mxCell>
        <mxCell id="nPoz_qIVyLvzvqhGFhRe-14" value="Sd Notificaciomnes&amp;nbsp;" style="shape=umlFrame;whiteSpace=wrap;html=1;pointerEvents=0;" vertex="1" parent="1">
          <mxGeometry x="580" y="650" width="420" height="230" as="geometry" />
        </mxCell>
        <mxCell id="nPoz_qIVyLvzvqhGFhRe-15" value="Notificar al cliente" style="text;html=1;align=center;verticalAlign=middle;resizable=0;points=[];autosize=1;strokeColor=none;fillColor=none;" vertex="1" parent="1">
          <mxGeometry x="707" y="755" width="120" height="30" as="geometry" />
        </mxCell>
        <mxCell id="nPoz_qIVyLvzvqhGFhRe-16" value="Ref" style="shape=umlFrame;whiteSpace=wrap;html=1;pointerEvents=0;" vertex="1" parent="1">
          <mxGeometry x="390" y="1150" width="250" height="90" as="geometry" />
        </mxCell>
        <mxCell id="nPoz_qIVyLvzvqhGFhRe-17" value="Notificar al Ususario" style="text;html=1;align=center;verticalAlign=middle;resizable=0;points=[];autosize=1;strokeColor=none;fillColor=none;" vertex="1" parent="1">
          <mxGeometry x="448" y="1180" width="130" height="30" as="geometry" />
        </mxCell>
        <mxCell id="nPoz_qIVyLvzvqhGFhRe-18" style="edgeStyle=orthogonalEdgeStyle;rounded=0;orthogonalLoop=1;jettySize=auto;html=1;entryX=0.447;entryY=0.013;entryDx=0;entryDy=0;entryPerimeter=0;" edge="1" parent="1" source="nPoz_qIVyLvzvqhGFhRe-9" target="nPoz_qIVyLvzvqhGFhRe-11">
          <mxGeometry relative="1" as="geometry" />
        </mxCell>
        <mxCell id="nPoz_qIVyLvzvqhGFhRe-19" value="" style="rounded=0;whiteSpace=wrap;html=1;" vertex="1" parent="1">
          <mxGeometry x="450" y="1030" width="120" height="20" as="geometry" />
        </mxCell>
        <mxCell id="nPoz_qIVyLvzvqhGFhRe-20" style="edgeStyle=orthogonalEdgeStyle;rounded=0;orthogonalLoop=1;jettySize=auto;html=1;entryX=0.479;entryY=0.042;entryDx=0;entryDy=0;entryPerimeter=0;" edge="1" parent="1" source="nPoz_qIVyLvzvqhGFhRe-19" target="nPoz_qIVyLvzvqhGFhRe-16">
          <mxGeometry relative="1" as="geometry" />
        </mxCell>
        <mxCell id="Q8JpgJy2ram5OE4kDzEt-1" value="sistema&amp;nbsp;" style="shape=umlLifeline;perimeter=lifelinePerimeter;whiteSpace=wrap;html=1;container=1;dropTarget=0;collapsible=0;recursiveResize=0;outlineConnect=0;portConstraint=eastwest;newEdgeStyle={&quot;curved&quot;:0,&quot;rounded&quot;:0};" vertex="1" parent="1">
          <mxGeometry x="40" y="688" width="70" height="192" as="geometry" />
        </mxCell>
        <mxCell id="Q8JpgJy2ram5OE4kDzEt-2" value="cliente" style="shape=umlLifeline;perimeter=lifelinePerimeter;whiteSpace=wrap;html=1;container=1;dropTarget=0;collapsible=0;recursiveResize=0;outlineConnect=0;portConstraint=eastwest;newEdgeStyle={&quot;curved&quot;:0,&quot;rounded&quot;:0};" vertex="1" parent="1">
          <mxGeometry x="320" y="688" width="70" height="192" as="geometry" />
        </mxCell>
        <mxCell id="Q8JpgJy2ram5OE4kDzEt-5" value="" style="html=1;points=[[0,0,0,0,5],[0,1,0,0,-5],[1,0,0,0,5],[1,1,0,0,-5]];perimeter=orthogonalPerimeter;outlineConnect=0;targetShapes=umlLifeline;portConstraint=eastwest;newEdgeStyle={&quot;curved&quot;:0,&quot;rounded&quot;:0};" vertex="1" parent="Q8JpgJy2ram5OE4kDzEt-2">
          <mxGeometry x="30" y="82" width="10" height="80" as="geometry" />
        </mxCell>
        <mxCell id="Q8JpgJy2ram5OE4kDzEt-3" value="sistema&amp;nbsp;" style="shape=umlLifeline;perimeter=lifelinePerimeter;whiteSpace=wrap;html=1;container=1;dropTarget=0;collapsible=0;recursiveResize=0;outlineConnect=0;portConstraint=eastwest;newEdgeStyle={&quot;curved&quot;:0,&quot;rounded&quot;:0};size=40;" vertex="1" parent="1">
          <mxGeometry x="600" y="680" width="70" height="192" as="geometry" />
        </mxCell>
        <mxCell id="Q8JpgJy2ram5OE4kDzEt-4" value="usuario" style="shape=umlLifeline;perimeter=lifelinePerimeter;whiteSpace=wrap;html=1;container=1;dropTarget=0;collapsible=0;recursiveResize=0;outlineConnect=0;portConstraint=eastwest;newEdgeStyle={&quot;curved&quot;:0,&quot;rounded&quot;:0};" vertex="1" parent="1">
          <mxGeometry x="870" y="680" width="70" height="192" as="geometry" />
        </mxCell>
        <mxCell id="Q8JpgJy2ram5OE4kDzEt-7" value="" style="html=1;points=[[0,0,0,0,5],[0,1,0,0,-5],[1,0,0,0,5],[1,1,0,0,-5]];perimeter=orthogonalPerimeter;outlineConnect=0;targetShapes=umlLifeline;portConstraint=eastwest;newEdgeStyle={&quot;curved&quot;:0,&quot;rounded&quot;:0};" vertex="1" parent="Q8JpgJy2ram5OE4kDzEt-4">
          <mxGeometry x="30" y="112" width="10" height="80" as="geometry" />
        </mxCell>
        <mxCell id="Q8JpgJy2ram5OE4kDzEt-6" value="" style="html=1;verticalAlign=bottom;startArrow=oval;endArrow=block;startSize=8;curved=0;rounded=0;entryX=0;entryY=0;entryDx=0;entryDy=5;" edge="1" parent="1" target="Q8JpgJy2ram5OE4kDzEt-5">
          <mxGeometry relative="1" as="geometry">
            <mxPoint x="70" y="775" as="sourcePoint" />
          </mxGeometry>
        </mxCell>
        <mxCell id="Q8JpgJy2ram5OE4kDzEt-8" value="" style="html=1;verticalAlign=bottom;startArrow=oval;endArrow=block;startSize=8;curved=0;rounded=0;entryX=0;entryY=0;entryDx=0;entryDy=5;" edge="1" parent="1" target="Q8JpgJy2ram5OE4kDzEt-7">
          <mxGeometry relative="1" as="geometry">
            <mxPoint x="640" y="797" as="sourcePoint" />
          </mxGeometry>
        </mxCell>
      </root>
    </mxGraphModel>
  </diagram>
</mxfile>
